<mxfile host="app.diagrams.net" modified="2024-01-20T19:08:21.161Z" agent="Mozilla/5.0 (Windows NT 10.0; Win64; x64) AppleWebKit/537.36 (KHTML, like Gecko) Chrome/120.0.0.0 Safari/537.36" etag="ILvwmxFOq_lQ4tI7eCss" version="22.1.21" type="github">
  <diagram name="Page-1" id="K3UAgkECTmoRZ6JnhF8z">
    <mxGraphModel dx="4780" dy="2460" grid="1" gridSize="10" guides="1" tooltips="1" connect="1" arrows="1" fold="1" page="1" pageScale="1" pageWidth="100000000" pageHeight="100000000" math="0" shadow="0">
      <root>
        <mxCell id="0" />
        <mxCell id="1" parent="0" />
        <mxCell id="BfkKTybxNyAKzRBTMPO3-7" style="edgeStyle=orthogonalEdgeStyle;rounded=0;orthogonalLoop=1;jettySize=auto;html=1;strokeWidth=20;" edge="1" parent="1" source="Ho2j7R6VXXGDHBP-JsYq-58" target="BfkKTybxNyAKzRBTMPO3-6">
          <mxGeometry relative="1" as="geometry" />
        </mxCell>
        <mxCell id="BfkKTybxNyAKzRBTMPO3-8" style="edgeStyle=orthogonalEdgeStyle;rounded=0;orthogonalLoop=1;jettySize=auto;html=1;entryX=0.5;entryY=1;entryDx=0;entryDy=0;strokeWidth=20;" edge="1" parent="1" source="Ho2j7R6VXXGDHBP-JsYq-58" target="BfkKTybxNyAKzRBTMPO3-3">
          <mxGeometry relative="1" as="geometry">
            <Array as="points">
              <mxPoint x="6405" y="2930" />
              <mxPoint x="6405" y="2930" />
            </Array>
          </mxGeometry>
        </mxCell>
        <mxCell id="BfkKTybxNyAKzRBTMPO3-10" style="edgeStyle=orthogonalEdgeStyle;rounded=0;orthogonalLoop=1;jettySize=auto;html=1;strokeWidth=20;" edge="1" parent="1" source="Ho2j7R6VXXGDHBP-JsYq-58" target="BfkKTybxNyAKzRBTMPO3-4">
          <mxGeometry relative="1" as="geometry">
            <Array as="points">
              <mxPoint x="6570" y="2330" />
              <mxPoint x="6965" y="2330" />
            </Array>
          </mxGeometry>
        </mxCell>
        <mxCell id="Ho2j7R6VXXGDHBP-JsYq-58" value="&lt;span style=&quot;font-size: 50px;&quot;&gt;&lt;b&gt;&lt;br&gt;Load Balancer&lt;br&gt;&lt;br&gt;&lt;/b&gt;&lt;/span&gt;" style="outlineConnect=0;dashed=0;verticalLabelPosition=bottom;verticalAlign=top;align=center;html=1;shape=mxgraph.aws3.classic_load_balancer;fillColor=#F58534;gradientColor=none;" parent="1" vertex="1">
          <mxGeometry x="6270" y="4100" width="359" height="360" as="geometry" />
        </mxCell>
        <mxCell id="BfkKTybxNyAKzRBTMPO3-2" style="edgeStyle=orthogonalEdgeStyle;rounded=0;orthogonalLoop=1;jettySize=auto;html=1;strokeWidth=20;" edge="1" parent="1" source="BfkKTybxNyAKzRBTMPO3-1" target="Ho2j7R6VXXGDHBP-JsYq-58">
          <mxGeometry relative="1" as="geometry" />
        </mxCell>
        <mxCell id="BfkKTybxNyAKzRBTMPO3-1" value="&lt;font style=&quot;font-size: 50px;&quot;&gt;&lt;b&gt;User&lt;/b&gt;&lt;/font&gt;" style="shape=actor;whiteSpace=wrap;html=1;" vertex="1" parent="1">
          <mxGeometry x="5280" y="4140" width="225" height="280" as="geometry" />
        </mxCell>
        <mxCell id="BfkKTybxNyAKzRBTMPO3-19" style="edgeStyle=orthogonalEdgeStyle;rounded=0;orthogonalLoop=1;jettySize=auto;html=1;strokeWidth=20;" edge="1" parent="1" source="BfkKTybxNyAKzRBTMPO3-3" target="BfkKTybxNyAKzRBTMPO3-11">
          <mxGeometry relative="1" as="geometry" />
        </mxCell>
        <mxCell id="BfkKTybxNyAKzRBTMPO3-3" value="&lt;b&gt;&lt;font style=&quot;font-size: 50px;&quot;&gt;Product Review Service&lt;br&gt;&lt;/font&gt;&lt;/b&gt;" style="rounded=1;whiteSpace=wrap;html=1;" vertex="1" parent="1">
          <mxGeometry x="6170" y="1327.11" width="470" height="250" as="geometry" />
        </mxCell>
        <mxCell id="BfkKTybxNyAKzRBTMPO3-23" style="edgeStyle=orthogonalEdgeStyle;rounded=0;orthogonalLoop=1;jettySize=auto;html=1;strokeWidth=20;" edge="1" parent="1" source="BfkKTybxNyAKzRBTMPO3-4" target="BfkKTybxNyAKzRBTMPO3-22">
          <mxGeometry relative="1" as="geometry">
            <Array as="points">
              <mxPoint x="8120" y="2105" />
              <mxPoint x="8120" y="2105" />
            </Array>
          </mxGeometry>
        </mxCell>
        <mxCell id="BfkKTybxNyAKzRBTMPO3-4" value="&lt;b&gt;&lt;font style=&quot;font-size: 50px;&quot;&gt;Order Status Service&lt;/font&gt;&lt;/b&gt;" style="rounded=1;whiteSpace=wrap;html=1;" vertex="1" parent="1">
          <mxGeometry x="6730" y="1980" width="470" height="250" as="geometry" />
        </mxCell>
        <mxCell id="BfkKTybxNyAKzRBTMPO3-29" style="edgeStyle=orthogonalEdgeStyle;rounded=0;orthogonalLoop=1;jettySize=auto;html=1;entryX=0;entryY=0.5;entryDx=0;entryDy=0;strokeWidth=20;" edge="1" parent="1" source="BfkKTybxNyAKzRBTMPO3-5" target="BfkKTybxNyAKzRBTMPO3-26">
          <mxGeometry relative="1" as="geometry" />
        </mxCell>
        <mxCell id="BfkKTybxNyAKzRBTMPO3-42" style="edgeStyle=orthogonalEdgeStyle;rounded=0;orthogonalLoop=1;jettySize=auto;html=1;strokeWidth=20;" edge="1" parent="1" source="BfkKTybxNyAKzRBTMPO3-5" target="BfkKTybxNyAKzRBTMPO3-39">
          <mxGeometry relative="1" as="geometry">
            <Array as="points">
              <mxPoint x="8105" y="3850" />
            </Array>
          </mxGeometry>
        </mxCell>
        <mxCell id="BfkKTybxNyAKzRBTMPO3-5" value="&lt;b&gt;&lt;font style=&quot;font-size: 50px;&quot;&gt;Get Recommendations Service&lt;/font&gt;&lt;/b&gt;" style="rounded=1;whiteSpace=wrap;html=1;" vertex="1" parent="1">
          <mxGeometry x="7870" y="3510" width="470" height="250" as="geometry" />
        </mxCell>
        <mxCell id="BfkKTybxNyAKzRBTMPO3-28" style="edgeStyle=orthogonalEdgeStyle;rounded=0;orthogonalLoop=1;jettySize=auto;html=1;strokeWidth=20;" edge="1" parent="1" source="BfkKTybxNyAKzRBTMPO3-6" target="BfkKTybxNyAKzRBTMPO3-26">
          <mxGeometry relative="1" as="geometry">
            <Array as="points">
              <mxPoint x="7900" y="4080" />
              <mxPoint x="8485" y="4080" />
            </Array>
          </mxGeometry>
        </mxCell>
        <mxCell id="BfkKTybxNyAKzRBTMPO3-48" style="edgeStyle=orthogonalEdgeStyle;rounded=0;orthogonalLoop=1;jettySize=auto;html=1;strokeWidth=20;" edge="1" parent="1" source="BfkKTybxNyAKzRBTMPO3-6" target="BfkKTybxNyAKzRBTMPO3-45">
          <mxGeometry relative="1" as="geometry">
            <Array as="points">
              <mxPoint x="7805" y="4670" />
            </Array>
          </mxGeometry>
        </mxCell>
        <mxCell id="BfkKTybxNyAKzRBTMPO3-6" value="&lt;b&gt;&lt;font style=&quot;font-size: 50px;&quot;&gt;Search Service&lt;/font&gt;&lt;/b&gt;" style="rounded=1;whiteSpace=wrap;html=1;" vertex="1" parent="1">
          <mxGeometry x="7570" y="4155" width="470" height="250" as="geometry" />
        </mxCell>
        <mxCell id="BfkKTybxNyAKzRBTMPO3-13" style="edgeStyle=orthogonalEdgeStyle;rounded=0;orthogonalLoop=1;jettySize=auto;html=1;strokeWidth=20;exitX=0;exitY=0.15;exitDx=0;exitDy=0;exitPerimeter=0;" edge="1" parent="1" source="BfkKTybxNyAKzRBTMPO3-11" target="BfkKTybxNyAKzRBTMPO3-6">
          <mxGeometry relative="1" as="geometry">
            <Array as="points">
              <mxPoint x="7330" y="894" />
              <mxPoint x="7330" y="3950" />
              <mxPoint x="7805" y="3950" />
            </Array>
          </mxGeometry>
        </mxCell>
        <mxCell id="BfkKTybxNyAKzRBTMPO3-16" style="edgeStyle=orthogonalEdgeStyle;rounded=0;orthogonalLoop=1;jettySize=auto;html=1;entryX=0;entryY=0.5;entryDx=0;entryDy=0;strokeWidth=20;" edge="1" parent="1" source="BfkKTybxNyAKzRBTMPO3-11" target="BfkKTybxNyAKzRBTMPO3-5">
          <mxGeometry relative="1" as="geometry">
            <Array as="points">
              <mxPoint x="7540" y="1021" />
              <mxPoint x="7540" y="3635" />
            </Array>
          </mxGeometry>
        </mxCell>
        <mxCell id="BfkKTybxNyAKzRBTMPO3-11" value="&lt;b style=&quot;border-color: var(--border-color);&quot;&gt;&lt;font style=&quot;border-color: var(--border-color); font-size: 50px;&quot;&gt;Product Review DB&lt;/font&gt;&lt;/b&gt;" style="strokeWidth=2;html=1;shape=mxgraph.flowchart.database;whiteSpace=wrap;" vertex="1" parent="1">
          <mxGeometry x="7740" y="840.0000000000001" width="300" height="362.11" as="geometry" />
        </mxCell>
        <mxCell id="BfkKTybxNyAKzRBTMPO3-20" value="&lt;span style=&quot;font-size: 50px;&quot;&gt;&lt;b&gt;Redis Cache&lt;br&gt;&lt;/b&gt;&lt;/span&gt;" style="image;sketch=0;aspect=fixed;html=1;points=[];align=center;fontSize=12;image=img/lib/mscae/Cache_Redis_Product.svg;opacity=70;" vertex="1" parent="1">
          <mxGeometry x="7190" y="1277.1100000000001" width="416.67" height="350" as="geometry" />
        </mxCell>
        <mxCell id="BfkKTybxNyAKzRBTMPO3-21" value="&lt;b style=&quot;border-color: var(--border-color);&quot;&gt;&lt;font style=&quot;border-color: var(--border-color); font-size: 50px;&quot;&gt;Order DB&lt;br&gt;&lt;br&gt;&lt;/font&gt;&lt;/b&gt;" style="strokeWidth=2;html=1;shape=mxgraph.flowchart.database;whiteSpace=wrap;" vertex="1" parent="1">
          <mxGeometry x="9560" y="1923.95" width="300" height="362.11" as="geometry" />
        </mxCell>
        <mxCell id="BfkKTybxNyAKzRBTMPO3-24" style="edgeStyle=orthogonalEdgeStyle;rounded=0;orthogonalLoop=1;jettySize=auto;html=1;strokeWidth=20;" edge="1" parent="1" source="BfkKTybxNyAKzRBTMPO3-22" target="BfkKTybxNyAKzRBTMPO3-21">
          <mxGeometry relative="1" as="geometry">
            <Array as="points">
              <mxPoint x="9380" y="2100" />
              <mxPoint x="9380" y="2100" />
            </Array>
          </mxGeometry>
        </mxCell>
        <mxCell id="BfkKTybxNyAKzRBTMPO3-22" value="&lt;span style=&quot;font-size: 50px;&quot;&gt;&lt;b&gt;Redis Cache&lt;br&gt;&lt;/b&gt;&lt;/span&gt;" style="image;sketch=0;aspect=fixed;html=1;points=[];align=center;fontSize=12;image=img/lib/mscae/Cache_Redis_Product.svg;opacity=70;" vertex="1" parent="1">
          <mxGeometry x="8420" y="1923.9500000000003" width="416.67" height="350" as="geometry" />
        </mxCell>
        <mxCell id="BfkKTybxNyAKzRBTMPO3-30" style="edgeStyle=orthogonalEdgeStyle;rounded=0;orthogonalLoop=1;jettySize=auto;html=1;strokeWidth=20;" edge="1" parent="1" source="BfkKTybxNyAKzRBTMPO3-26" target="BfkKTybxNyAKzRBTMPO3-27">
          <mxGeometry relative="1" as="geometry">
            <Array as="points">
              <mxPoint x="8560" y="2541" />
            </Array>
          </mxGeometry>
        </mxCell>
        <mxCell id="BfkKTybxNyAKzRBTMPO3-33" style="edgeStyle=orthogonalEdgeStyle;rounded=0;orthogonalLoop=1;jettySize=auto;html=1;strokeWidth=20;" edge="1" parent="1" source="BfkKTybxNyAKzRBTMPO3-26" target="BfkKTybxNyAKzRBTMPO3-32">
          <mxGeometry relative="1" as="geometry" />
        </mxCell>
        <mxCell id="BfkKTybxNyAKzRBTMPO3-26" value="&lt;b&gt;&lt;font style=&quot;font-size: 50px;&quot;&gt;Add to cart Service&lt;/font&gt;&lt;/b&gt;" style="rounded=1;whiteSpace=wrap;html=1;" vertex="1" parent="1">
          <mxGeometry x="8380" y="2890" width="470" height="250" as="geometry" />
        </mxCell>
        <mxCell id="BfkKTybxNyAKzRBTMPO3-27" value="&lt;b style=&quot;border-color: var(--border-color);&quot;&gt;&lt;font style=&quot;border-color: var(--border-color); font-size: 50px;&quot;&gt;Cart DB&lt;br&gt;&lt;/font&gt;&lt;/b&gt;" style="strokeWidth=2;html=1;shape=mxgraph.flowchart.database;whiteSpace=wrap;" vertex="1" parent="1">
          <mxGeometry x="7980" y="2360" width="300" height="362.11" as="geometry" />
        </mxCell>
        <mxCell id="BfkKTybxNyAKzRBTMPO3-31" value="&lt;b&gt;&lt;font style=&quot;font-size: 50px;&quot;&gt;Queue&lt;/font&gt;&lt;/b&gt;" style="outlineConnect=0;dashed=0;verticalLabelPosition=bottom;verticalAlign=top;align=center;html=1;shape=mxgraph.aws3.queue;fillColor=#D9A741;gradientColor=none;" vertex="1" parent="1">
          <mxGeometry x="8290" y="3230" width="260" height="190" as="geometry" />
        </mxCell>
        <mxCell id="BfkKTybxNyAKzRBTMPO3-32" value="&lt;b&gt;&lt;font style=&quot;font-size: 50px;&quot;&gt;Place Order Service&lt;/font&gt;&lt;/b&gt;" style="rounded=1;whiteSpace=wrap;html=1;" vertex="1" parent="1">
          <mxGeometry x="9390" y="2890" width="470" height="250" as="geometry" />
        </mxCell>
        <mxCell id="BfkKTybxNyAKzRBTMPO3-35" style="edgeStyle=orthogonalEdgeStyle;rounded=0;orthogonalLoop=1;jettySize=auto;html=1;entryX=0.5;entryY=1;entryDx=0;entryDy=0;entryPerimeter=0;strokeWidth=20;" edge="1" parent="1" source="BfkKTybxNyAKzRBTMPO3-32" target="BfkKTybxNyAKzRBTMPO3-21">
          <mxGeometry relative="1" as="geometry">
            <Array as="points">
              <mxPoint x="9710" y="2750" />
              <mxPoint x="9710" y="2750" />
            </Array>
          </mxGeometry>
        </mxCell>
        <mxCell id="BfkKTybxNyAKzRBTMPO3-38" style="edgeStyle=orthogonalEdgeStyle;rounded=0;orthogonalLoop=1;jettySize=auto;html=1;strokeWidth=20;" edge="1" parent="1" source="BfkKTybxNyAKzRBTMPO3-37" target="BfkKTybxNyAKzRBTMPO3-1">
          <mxGeometry relative="1" as="geometry" />
        </mxCell>
        <mxCell id="BfkKTybxNyAKzRBTMPO3-37" value="&lt;b&gt;&lt;font style=&quot;font-size: 50px;&quot;&gt;User DB&lt;br&gt;&lt;br&gt;&lt;/font&gt;&lt;/b&gt;" style="shape=image;html=1;verticalAlign=top;verticalLabelPosition=bottom;labelBackgroundColor=#ffffff;imageAspect=0;aspect=fixed;image=https://cdn1.iconfinder.com/data/icons/unicons-line-vol-2/24/database-128.png" vertex="1" parent="1">
          <mxGeometry x="5172.5" y="3100" width="440" height="440" as="geometry" />
        </mxCell>
        <mxCell id="BfkKTybxNyAKzRBTMPO3-43" style="edgeStyle=orthogonalEdgeStyle;rounded=0;orthogonalLoop=1;jettySize=auto;html=1;strokeWidth=20;" edge="1" parent="1" source="BfkKTybxNyAKzRBTMPO3-39" target="BfkKTybxNyAKzRBTMPO3-41">
          <mxGeometry relative="1" as="geometry" />
        </mxCell>
        <mxCell id="BfkKTybxNyAKzRBTMPO3-39" value="&lt;b&gt;&lt;font style=&quot;font-size: 50px;&quot;&gt;Recommendation DB&lt;br&gt;&lt;br&gt;&lt;/font&gt;&lt;/b&gt;" style="shape=image;html=1;verticalAlign=top;verticalLabelPosition=bottom;labelBackgroundColor=#ffffff;imageAspect=0;aspect=fixed;image=https://cdn1.iconfinder.com/data/icons/unicons-line-vol-2/24/database-128.png" vertex="1" parent="1">
          <mxGeometry x="9050" y="3600" width="440" height="440" as="geometry" />
        </mxCell>
        <mxCell id="BfkKTybxNyAKzRBTMPO3-41" value="&lt;b&gt;&lt;font style=&quot;font-size: 50px;&quot;&gt;Generate Recommendation&lt;/font&gt;&lt;/b&gt;" style="rounded=1;whiteSpace=wrap;html=1;strokeWidth=20;" vertex="1" parent="1">
          <mxGeometry x="10200" y="3695" width="470" height="250" as="geometry" />
        </mxCell>
        <mxCell id="BfkKTybxNyAKzRBTMPO3-44" value="&lt;b&gt;&lt;font style=&quot;font-size: 50px;&quot;&gt;Place Order Service&lt;/font&gt;&lt;/b&gt;" style="rounded=1;whiteSpace=wrap;html=1;" vertex="1" parent="1">
          <mxGeometry x="9410" y="2910" width="470" height="250" as="geometry" />
        </mxCell>
        <mxCell id="BfkKTybxNyAKzRBTMPO3-46" style="edgeStyle=orthogonalEdgeStyle;rounded=0;orthogonalLoop=1;jettySize=auto;html=1;strokeWidth=20;" edge="1" parent="1" source="BfkKTybxNyAKzRBTMPO3-45" target="BfkKTybxNyAKzRBTMPO3-41">
          <mxGeometry relative="1" as="geometry">
            <Array as="points">
              <mxPoint x="9320" y="4290" />
              <mxPoint x="10435" y="4290" />
            </Array>
          </mxGeometry>
        </mxCell>
        <mxCell id="BfkKTybxNyAKzRBTMPO3-45" value="&lt;b&gt;&lt;font style=&quot;font-size: 50px;&quot;&gt;Search history DB&lt;br&gt;&lt;br&gt;&lt;/font&gt;&lt;/b&gt;" style="shape=image;html=1;verticalAlign=top;verticalLabelPosition=bottom;labelBackgroundColor=#ffffff;imageAspect=0;aspect=fixed;image=https://cdn1.iconfinder.com/data/icons/unicons-line-vol-2/24/database-128.png" vertex="1" parent="1">
          <mxGeometry x="9100" y="4430" width="440" height="440" as="geometry" />
        </mxCell>
        <mxCell id="BfkKTybxNyAKzRBTMPO3-47" value="&lt;b&gt;&lt;font style=&quot;font-size: 50px;&quot;&gt;Queue&lt;/font&gt;&lt;/b&gt;" style="outlineConnect=0;dashed=0;verticalLabelPosition=bottom;verticalAlign=top;align=center;html=1;shape=mxgraph.aws3.queue;fillColor=#D9A741;gradientColor=none;" vertex="1" parent="1">
          <mxGeometry x="8330" y="4480" width="260" height="190" as="geometry" />
        </mxCell>
        <mxCell id="BfkKTybxNyAKzRBTMPO3-56" style="edgeStyle=orthogonalEdgeStyle;rounded=0;orthogonalLoop=1;jettySize=auto;html=1;strokeWidth=20;" edge="1" parent="1" source="BfkKTybxNyAKzRBTMPO3-52" target="BfkKTybxNyAKzRBTMPO3-53">
          <mxGeometry relative="1" as="geometry" />
        </mxCell>
        <mxCell id="BfkKTybxNyAKzRBTMPO3-52" value="" style="outlineConnect=0;dashed=0;verticalLabelPosition=bottom;verticalAlign=top;align=center;html=1;shape=mxgraph.aws3.elasticsearch_service;fillColor=#F58534;gradientColor=none;" vertex="1" parent="1">
          <mxGeometry x="8550" y="5290" width="340" height="350" as="geometry" />
        </mxCell>
        <mxCell id="BfkKTybxNyAKzRBTMPO3-53" value="&lt;b style=&quot;border-color: var(--border-color);&quot;&gt;&lt;font style=&quot;border-color: var(--border-color); font-size: 50px;&quot;&gt;Product DB&lt;br&gt;&lt;/font&gt;&lt;/b&gt;" style="strokeWidth=2;html=1;shape=mxgraph.flowchart.database;whiteSpace=wrap;" vertex="1" parent="1">
          <mxGeometry x="10490" y="5283.94" width="300" height="362.11" as="geometry" />
        </mxCell>
        <mxCell id="BfkKTybxNyAKzRBTMPO3-54" style="edgeStyle=orthogonalEdgeStyle;rounded=0;orthogonalLoop=1;jettySize=auto;html=1;entryX=0.851;entryY=1;entryDx=0;entryDy=0;entryPerimeter=0;strokeWidth=20;" edge="1" parent="1" source="BfkKTybxNyAKzRBTMPO3-53" target="BfkKTybxNyAKzRBTMPO3-41">
          <mxGeometry relative="1" as="geometry">
            <Array as="points">
              <mxPoint x="10600" y="4920" />
              <mxPoint x="10600" y="4920" />
            </Array>
          </mxGeometry>
        </mxCell>
        <mxCell id="BfkKTybxNyAKzRBTMPO3-55" style="edgeStyle=orthogonalEdgeStyle;rounded=0;orthogonalLoop=1;jettySize=auto;html=1;entryX=0;entryY=0.5;entryDx=0;entryDy=0;entryPerimeter=0;strokeWidth=20;" edge="1" parent="1" source="BfkKTybxNyAKzRBTMPO3-6" target="BfkKTybxNyAKzRBTMPO3-52">
          <mxGeometry relative="1" as="geometry">
            <Array as="points">
              <mxPoint x="7670" y="5465" />
            </Array>
          </mxGeometry>
        </mxCell>
        <mxCell id="BfkKTybxNyAKzRBTMPO3-57" value="&lt;span style=&quot;font-size: 50px;&quot;&gt;&lt;b&gt;Redis Cache&lt;br&gt;&lt;/b&gt;&lt;/span&gt;" style="image;sketch=0;aspect=fixed;html=1;points=[];align=center;fontSize=12;image=img/lib/mscae/Cache_Redis_Product.svg;opacity=70;" vertex="1" parent="1">
          <mxGeometry x="8580" y="3660" width="416.67" height="350" as="geometry" />
        </mxCell>
        <mxCell id="BfkKTybxNyAKzRBTMPO3-58" value="&lt;font style=&quot;&quot;&gt;&lt;span style=&quot;font-size: 59px;&quot;&gt;&lt;b&gt;Requirements&lt;/b&gt;&lt;/span&gt;&lt;br&gt;&lt;br&gt;&lt;br&gt;&lt;div style=&quot;text-align: left;&quot;&gt;&lt;span style=&quot;font-size: 59px;&quot;&gt;1. Create and update User acc&lt;/span&gt;&lt;/div&gt;&lt;div style=&quot;text-align: left;&quot;&gt;&lt;span style=&quot;font-size: 59px;&quot;&gt;2. Search for Products&lt;/span&gt;&lt;/div&gt;&lt;div style=&quot;text-align: left;&quot;&gt;&lt;span style=&quot;font-size: 59px;&quot;&gt;3. Recommendations on Homepage&lt;/span&gt;&lt;/div&gt;&lt;div style=&quot;text-align: left;&quot;&gt;&lt;span style=&quot;font-size: 59px;&quot;&gt;4. Place Order&lt;/span&gt;&lt;/div&gt;&lt;div style=&quot;text-align: left;&quot;&gt;&lt;span style=&quot;font-size: 59px;&quot;&gt;5. Check Order status&lt;/span&gt;&lt;/div&gt;&lt;div style=&quot;text-align: left;&quot;&gt;&lt;span style=&quot;font-size: 59px;&quot;&gt;6. Write/View product Reviews&lt;/span&gt;&lt;/div&gt;&lt;div style=&quot;text-align: left;&quot;&gt;&lt;span style=&quot;font-size: 59px;&quot;&gt;7. Low Latency for Serach and Reommendations&lt;/span&gt;&lt;/div&gt;&lt;div style=&quot;text-align: left;&quot;&gt;&lt;span style=&quot;font-size: 59px;&quot;&gt;8. High Consistency for Placing Order, Order Status and Payments&lt;/span&gt;&lt;/div&gt;&lt;div style=&quot;text-align: left;&quot;&gt;&lt;span style=&quot;font-size: 59px;&quot;&gt;&lt;br&gt;&lt;/span&gt;&lt;/div&gt;&lt;/font&gt;" style="text;html=1;align=center;verticalAlign=middle;resizable=0;points=[];autosize=1;strokeColor=none;fillColor=none;" vertex="1" parent="1">
          <mxGeometry x="1070" y="1265" width="1770" height="750" as="geometry" />
        </mxCell>
        <mxCell id="BfkKTybxNyAKzRBTMPO3-59" value="&lt;font style=&quot;font-size: 60px;&quot;&gt;Users&lt;/font&gt;" style="swimlane;fontStyle=0;childLayout=stackLayout;horizontal=1;startSize=70;horizontalStack=0;resizeParent=1;resizeParentMax=0;resizeLast=0;collapsible=1;marginBottom=0;whiteSpace=wrap;html=1;" vertex="1" parent="1">
          <mxGeometry x="630" y="2090" width="630" height="1350" as="geometry">
            <mxRectangle x="890" y="2400" width="150" height="90" as="alternateBounds" />
          </mxGeometry>
        </mxCell>
        <mxCell id="BfkKTybxNyAKzRBTMPO3-60" value="&lt;font style=&quot;font-size: 60px;&quot;&gt;User ID (PK)&lt;/font&gt;" style="text;strokeColor=none;fillColor=none;align=left;verticalAlign=middle;spacingLeft=4;spacingRight=4;overflow=hidden;points=[[0,0.5],[1,0.5]];portConstraint=eastwest;rotatable=0;whiteSpace=wrap;html=1;" vertex="1" parent="BfkKTybxNyAKzRBTMPO3-59">
          <mxGeometry y="70" width="630" height="160" as="geometry" />
        </mxCell>
        <mxCell id="BfkKTybxNyAKzRBTMPO3-64" value="&lt;font style=&quot;font-size: 60px;&quot;&gt;User Name: String&lt;/font&gt;" style="text;strokeColor=none;fillColor=none;align=left;verticalAlign=middle;spacingLeft=4;spacingRight=4;overflow=hidden;points=[[0,0.5],[1,0.5]];portConstraint=eastwest;rotatable=0;whiteSpace=wrap;html=1;" vertex="1" parent="BfkKTybxNyAKzRBTMPO3-59">
          <mxGeometry y="230" width="630" height="160" as="geometry" />
        </mxCell>
        <mxCell id="BfkKTybxNyAKzRBTMPO3-65" value="&lt;font style=&quot;font-size: 60px;&quot;&gt;Password: String (Encrypted)&lt;/font&gt;" style="text;strokeColor=none;fillColor=none;align=left;verticalAlign=middle;spacingLeft=4;spacingRight=4;overflow=hidden;points=[[0,0.5],[1,0.5]];portConstraint=eastwest;rotatable=0;whiteSpace=wrap;html=1;" vertex="1" parent="BfkKTybxNyAKzRBTMPO3-59">
          <mxGeometry y="390" width="630" height="160" as="geometry" />
        </mxCell>
        <mxCell id="BfkKTybxNyAKzRBTMPO3-66" value="&lt;font style=&quot;font-size: 60px;&quot;&gt;First Name: String&lt;/font&gt;" style="text;strokeColor=none;fillColor=none;align=left;verticalAlign=middle;spacingLeft=4;spacingRight=4;overflow=hidden;points=[[0,0.5],[1,0.5]];portConstraint=eastwest;rotatable=0;whiteSpace=wrap;html=1;" vertex="1" parent="BfkKTybxNyAKzRBTMPO3-59">
          <mxGeometry y="550" width="630" height="160" as="geometry" />
        </mxCell>
        <mxCell id="BfkKTybxNyAKzRBTMPO3-67" value="&lt;font style=&quot;font-size: 60px;&quot;&gt;Last Name: String&lt;/font&gt;" style="text;strokeColor=none;fillColor=none;align=left;verticalAlign=middle;spacingLeft=4;spacingRight=4;overflow=hidden;points=[[0,0.5],[1,0.5]];portConstraint=eastwest;rotatable=0;whiteSpace=wrap;html=1;" vertex="1" parent="BfkKTybxNyAKzRBTMPO3-59">
          <mxGeometry y="710" width="630" height="160" as="geometry" />
        </mxCell>
        <mxCell id="BfkKTybxNyAKzRBTMPO3-68" value="&lt;font style=&quot;font-size: 60px;&quot;&gt;Email: String&lt;/font&gt;" style="text;strokeColor=none;fillColor=none;align=left;verticalAlign=middle;spacingLeft=4;spacingRight=4;overflow=hidden;points=[[0,0.5],[1,0.5]];portConstraint=eastwest;rotatable=0;whiteSpace=wrap;html=1;" vertex="1" parent="BfkKTybxNyAKzRBTMPO3-59">
          <mxGeometry y="870" width="630" height="160" as="geometry" />
        </mxCell>
        <mxCell id="BfkKTybxNyAKzRBTMPO3-69" value="&lt;font style=&quot;font-size: 60px;&quot;&gt;Last Login: Date&lt;/font&gt;" style="text;strokeColor=none;fillColor=none;align=left;verticalAlign=middle;spacingLeft=4;spacingRight=4;overflow=hidden;points=[[0,0.5],[1,0.5]];portConstraint=eastwest;rotatable=0;whiteSpace=wrap;html=1;" vertex="1" parent="BfkKTybxNyAKzRBTMPO3-59">
          <mxGeometry y="1030" width="630" height="160" as="geometry" />
        </mxCell>
        <mxCell id="BfkKTybxNyAKzRBTMPO3-70" value="&lt;font style=&quot;font-size: 60px;&quot;&gt;Created: Date&lt;/font&gt;" style="text;strokeColor=none;fillColor=none;align=left;verticalAlign=middle;spacingLeft=4;spacingRight=4;overflow=hidden;points=[[0,0.5],[1,0.5]];portConstraint=eastwest;rotatable=0;whiteSpace=wrap;html=1;" vertex="1" parent="BfkKTybxNyAKzRBTMPO3-59">
          <mxGeometry y="1190" width="630" height="160" as="geometry" />
        </mxCell>
        <mxCell id="BfkKTybxNyAKzRBTMPO3-71" value="&lt;font style=&quot;font-size: 60px;&quot;&gt;Address&lt;/font&gt;" style="swimlane;fontStyle=0;childLayout=stackLayout;horizontal=1;startSize=70;horizontalStack=0;resizeParent=1;resizeParentMax=0;resizeLast=0;collapsible=1;marginBottom=0;whiteSpace=wrap;html=1;" vertex="1" parent="1">
          <mxGeometry x="1420" y="2090" width="730" height="1510" as="geometry">
            <mxRectangle x="890" y="2400" width="150" height="90" as="alternateBounds" />
          </mxGeometry>
        </mxCell>
        <mxCell id="BfkKTybxNyAKzRBTMPO3-72" value="&lt;font style=&quot;font-size: 60px;&quot;&gt;Address ID (PK)&lt;/font&gt;" style="text;strokeColor=none;fillColor=none;align=left;verticalAlign=middle;spacingLeft=4;spacingRight=4;overflow=hidden;points=[[0,0.5],[1,0.5]];portConstraint=eastwest;rotatable=0;whiteSpace=wrap;html=1;" vertex="1" parent="BfkKTybxNyAKzRBTMPO3-71">
          <mxGeometry y="70" width="730" height="160" as="geometry" />
        </mxCell>
        <mxCell id="BfkKTybxNyAKzRBTMPO3-80" value="&lt;font style=&quot;font-size: 60px;&quot;&gt;User ID (FK)&lt;/font&gt;" style="text;strokeColor=none;fillColor=none;align=left;verticalAlign=middle;spacingLeft=4;spacingRight=4;overflow=hidden;points=[[0,0.5],[1,0.5]];portConstraint=eastwest;rotatable=0;whiteSpace=wrap;html=1;" vertex="1" parent="BfkKTybxNyAKzRBTMPO3-71">
          <mxGeometry y="230" width="730" height="160" as="geometry" />
        </mxCell>
        <mxCell id="BfkKTybxNyAKzRBTMPO3-73" value="&lt;span style=&quot;font-size: 60px;&quot;&gt;Effective Date: Date&lt;/span&gt;" style="text;strokeColor=none;fillColor=none;align=left;verticalAlign=middle;spacingLeft=4;spacingRight=4;overflow=hidden;points=[[0,0.5],[1,0.5]];portConstraint=eastwest;rotatable=0;whiteSpace=wrap;html=1;" vertex="1" parent="BfkKTybxNyAKzRBTMPO3-71">
          <mxGeometry y="390" width="730" height="160" as="geometry" />
        </mxCell>
        <mxCell id="BfkKTybxNyAKzRBTMPO3-74" value="&lt;font style=&quot;font-size: 60px;&quot;&gt;Addres Type: String(billing/home/office)&lt;/font&gt;" style="text;strokeColor=none;fillColor=none;align=left;verticalAlign=middle;spacingLeft=4;spacingRight=4;overflow=hidden;points=[[0,0.5],[1,0.5]];portConstraint=eastwest;rotatable=0;whiteSpace=wrap;html=1;" vertex="1" parent="BfkKTybxNyAKzRBTMPO3-71">
          <mxGeometry y="550" width="730" height="160" as="geometry" />
        </mxCell>
        <mxCell id="BfkKTybxNyAKzRBTMPO3-75" value="&lt;font style=&quot;font-size: 60px;&quot;&gt;AddressLine 1: string&lt;/font&gt;" style="text;strokeColor=none;fillColor=none;align=left;verticalAlign=middle;spacingLeft=4;spacingRight=4;overflow=hidden;points=[[0,0.5],[1,0.5]];portConstraint=eastwest;rotatable=0;whiteSpace=wrap;html=1;" vertex="1" parent="BfkKTybxNyAKzRBTMPO3-71">
          <mxGeometry y="710" width="730" height="160" as="geometry" />
        </mxCell>
        <mxCell id="BfkKTybxNyAKzRBTMPO3-76" value="&lt;font style=&quot;font-size: 60px;&quot;&gt;AddressLine 2: string&lt;/font&gt;" style="text;strokeColor=none;fillColor=none;align=left;verticalAlign=middle;spacingLeft=4;spacingRight=4;overflow=hidden;points=[[0,0.5],[1,0.5]];portConstraint=eastwest;rotatable=0;whiteSpace=wrap;html=1;" vertex="1" parent="BfkKTybxNyAKzRBTMPO3-71">
          <mxGeometry y="870" width="730" height="160" as="geometry" />
        </mxCell>
        <mxCell id="BfkKTybxNyAKzRBTMPO3-77" value="&lt;font style=&quot;font-size: 60px;&quot;&gt;City: String&lt;/font&gt;" style="text;strokeColor=none;fillColor=none;align=left;verticalAlign=middle;spacingLeft=4;spacingRight=4;overflow=hidden;points=[[0,0.5],[1,0.5]];portConstraint=eastwest;rotatable=0;whiteSpace=wrap;html=1;" vertex="1" parent="BfkKTybxNyAKzRBTMPO3-71">
          <mxGeometry y="1030" width="730" height="160" as="geometry" />
        </mxCell>
        <mxCell id="BfkKTybxNyAKzRBTMPO3-78" value="&lt;span style=&quot;font-size: 60px;&quot;&gt;Country: String&lt;/span&gt;" style="text;strokeColor=none;fillColor=none;align=left;verticalAlign=middle;spacingLeft=4;spacingRight=4;overflow=hidden;points=[[0,0.5],[1,0.5]];portConstraint=eastwest;rotatable=0;whiteSpace=wrap;html=1;" vertex="1" parent="BfkKTybxNyAKzRBTMPO3-71">
          <mxGeometry y="1190" width="730" height="160" as="geometry" />
        </mxCell>
        <mxCell id="BfkKTybxNyAKzRBTMPO3-79" value="&lt;font style=&quot;font-size: 60px;&quot;&gt;Zip: Alpha numeric&lt;/font&gt;" style="text;strokeColor=none;fillColor=none;align=left;verticalAlign=middle;spacingLeft=4;spacingRight=4;overflow=hidden;points=[[0,0.5],[1,0.5]];portConstraint=eastwest;rotatable=0;whiteSpace=wrap;html=1;" vertex="1" parent="BfkKTybxNyAKzRBTMPO3-71">
          <mxGeometry y="1350" width="730" height="160" as="geometry" />
        </mxCell>
        <mxCell id="BfkKTybxNyAKzRBTMPO3-81" value="&lt;font style=&quot;&quot;&gt;&lt;span style=&quot;font-size: 60px;&quot;&gt;Product DB:&lt;/span&gt;&lt;br&gt;&lt;div style=&quot;font-size: 60px; text-align: left;&quot;&gt;&lt;span style=&quot;background-color: initial;&quot;&gt;{&lt;/span&gt;&lt;/div&gt;&lt;div style=&quot;text-align: left;&quot;&gt;&lt;span style=&quot;font-size: 60px;&quot;&gt;&lt;span style=&quot;white-space: pre;&quot;&gt;&#x9;&lt;/span&gt;&quot;id&quot;: &quot;1313123123das123&quot;,&lt;/span&gt;&lt;/div&gt;&lt;div style=&quot;text-align: left;&quot;&gt;&lt;span style=&quot;font-size: 60px;&quot;&gt;&lt;span style=&quot;white-space: pre;&quot;&gt;&#x9;&lt;/span&gt;&quot;category:&quot;Clothing&quot;,&lt;/span&gt;&lt;/div&gt;&lt;div style=&quot;text-align: left;&quot;&gt;&lt;span style=&quot;font-size: 60px;&quot;&gt;&lt;span style=&quot;white-space: pre;&quot;&gt;&#x9;&lt;/span&gt;&quot;item&quot;: &quot;T-shirt&quot;,&lt;/span&gt;&lt;/div&gt;&lt;div style=&quot;text-align: left;&quot;&gt;&lt;span style=&quot;font-size: 60px;&quot;&gt;&lt;span style=&quot;white-space: pre;&quot;&gt;&#x9;&lt;/span&gt;&quot;gender&quot;: &quot;female&quot;,&lt;/span&gt;&lt;/div&gt;&lt;div style=&quot;text-align: left;&quot;&gt;&lt;span style=&quot;font-size: 60px;&quot;&gt;&lt;span style=&quot;white-space: pre;&quot;&gt;&#x9;&lt;/span&gt;&quot;sizer&quot;: &quot;S&quot;,&lt;/span&gt;&lt;/div&gt;&lt;div style=&quot;text-align: left;&quot;&gt;&lt;span style=&quot;font-size: 60px;&quot;&gt;&lt;span style=&quot;white-space: pre;&quot;&gt;&#x9;&lt;/span&gt;&quot;color&quot;: &quot;balck&quot;&lt;/span&gt;&lt;/div&gt;&lt;div style=&quot;text-align: left;&quot;&gt;&lt;span style=&quot;background-color: initial; font-size: 60px;&quot;&gt;}&lt;/span&gt;&lt;/div&gt;&lt;/font&gt;" style="text;html=1;align=center;verticalAlign=middle;resizable=0;points=[];autosize=1;strokeColor=none;fillColor=none;" vertex="1" parent="1">
          <mxGeometry x="2300" y="2090" width="870" height="660" as="geometry" />
        </mxCell>
        <mxCell id="BfkKTybxNyAKzRBTMPO3-82" value="&lt;font style=&quot;&quot;&gt;&lt;span style=&quot;font-size: 60px;&quot;&gt;Product DB:&lt;/span&gt;&lt;br&gt;&lt;div style=&quot;font-size: 60px; text-align: left;&quot;&gt;&lt;span style=&quot;background-color: initial;&quot;&gt;{&lt;/span&gt;&lt;/div&gt;&lt;div style=&quot;text-align: left;&quot;&gt;&lt;span style=&quot;font-size: 60px;&quot;&gt;&lt;span style=&quot;white-space: pre;&quot;&gt;&#x9;&lt;/span&gt;&quot;Order_id&quot;: &quot;1313123123das123&quot;,&lt;/span&gt;&lt;/div&gt;&lt;div style=&quot;text-align: left;&quot;&gt;&lt;span style=&quot;font-size: 60px;&quot;&gt;&lt;span style=&quot;white-space: pre;&quot;&gt;&#x9;&lt;/span&gt;&quot;User_id&quot;: &quot;sdadasdsa&quot;,&lt;/span&gt;&lt;/div&gt;&lt;div style=&quot;text-align: left;&quot;&gt;&lt;span style=&quot;font-size: 60px;&quot;&gt;&lt;span style=&quot;white-space: pre;&quot;&gt;&#x9;&lt;/span&gt;&quot;Address_id&quot;: &quot;dasd02931&quot;,&lt;br&gt;&lt;/span&gt;&lt;/div&gt;&lt;div style=&quot;text-align: left;&quot;&gt;&lt;span style=&quot;font-size: 60px;&quot;&gt;&lt;span style=&quot;white-space: pre;&quot;&gt;&#x9;&lt;/span&gt;&quot;Items&quot;: [&lt;/span&gt;&lt;/div&gt;&lt;div style=&quot;text-align: left;&quot;&gt;&lt;span style=&quot;font-size: 60px;&quot;&gt;&lt;span style=&quot;white-space: pre;&quot;&gt;&#x9;&lt;/span&gt;&lt;span style=&quot;white-space: pre;&quot;&gt;&#x9;&lt;/span&gt;{&lt;/span&gt;&lt;/div&gt;&lt;div style=&quot;text-align: left;&quot;&gt;&lt;span style=&quot;font-size: 60px;&quot;&gt;&lt;span style=&quot;white-space: pre;&quot;&gt;&#x9;&lt;/span&gt;&lt;span style=&quot;white-space: pre;&quot;&gt;&#x9;&lt;/span&gt;&lt;span style=&quot;white-space: pre;&quot;&gt;&#x9;&lt;/span&gt;&quot;Item_id&quot;: &quot;21312&quot;,&lt;br&gt;&lt;/span&gt;&lt;/div&gt;&lt;div style=&quot;text-align: left;&quot;&gt;&lt;span style=&quot;font-size: 60px;&quot;&gt;&lt;span style=&quot;white-space: pre;&quot;&gt;&#x9;&lt;/span&gt;&lt;span style=&quot;white-space: pre;&quot;&gt;&#x9;&lt;/span&gt;&lt;span style=&quot;white-space: pre;&quot;&gt;&#x9;&lt;/span&gt;&quot;Quantity&quot;: 1,&lt;/span&gt;&lt;/div&gt;&lt;div style=&quot;text-align: left;&quot;&gt;&lt;span style=&quot;font-size: 60px;&quot;&gt;&lt;span style=&quot;white-space: pre;&quot;&gt;&#x9;&lt;/span&gt;&lt;span style=&quot;white-space: pre;&quot;&gt;&#x9;&lt;/span&gt;&lt;span style=&quot;white-space: pre;&quot;&gt;&#x9;&lt;/span&gt;&quot;Price&quot;: 50,&lt;br&gt;&lt;/span&gt;&lt;/div&gt;&lt;div style=&quot;text-align: left;&quot;&gt;&lt;span style=&quot;font-size: 60px;&quot;&gt;&lt;span style=&quot;white-space: pre;&quot;&gt;&#x9;&lt;/span&gt;&lt;span style=&quot;white-space: pre;&quot;&gt;&#x9;&lt;/span&gt;&lt;span style=&quot;white-space: pre;&quot;&gt;&#x9;&lt;/span&gt;&quot;Currency&quot;: &quot;USD&quot;&lt;br&gt;&lt;/span&gt;&lt;/div&gt;&lt;div style=&quot;text-align: left;&quot;&gt;&lt;span style=&quot;background-color: initial; white-space-collapse: preserve; font-size: 60px;&quot;&gt;&#x9;&lt;/span&gt;&lt;span style=&quot;background-color: initial; white-space-collapse: preserve; font-size: 60px;&quot;&gt;&#x9;&lt;/span&gt;&lt;span style=&quot;background-color: initial; font-size: 60px;&quot;&gt;}&lt;/span&gt;&lt;/div&gt;&lt;div style=&quot;text-align: left;&quot;&gt;&lt;/div&gt;&lt;div style=&quot;text-align: left;&quot;&gt;&lt;span style=&quot;font-size: 60px;&quot;&gt;&lt;span style=&quot;white-space: pre;&quot;&gt;&lt;span style=&quot;white-space: pre;&quot;&gt;&#x9;&lt;/span&gt;&lt;/span&gt;]&lt;/span&gt;&lt;/div&gt;&lt;div style=&quot;text-align: left;&quot;&gt;&lt;span style=&quot;font-size: 60px;&quot;&gt;&lt;span style=&quot;white-space: pre;&quot;&gt;&#x9;&lt;/span&gt;&quot;Total_amt&quot;: 115,&lt;/span&gt;&lt;/div&gt;&lt;div style=&quot;text-align: left;&quot;&gt;&lt;span style=&quot;font-size: 60px;&quot;&gt;&lt;span style=&quot;white-space: pre;&quot;&gt;&#x9;&lt;/span&gt;&quot;Taxes&quot;: 10,&lt;br&gt;&lt;/span&gt;&lt;/div&gt;&lt;div style=&quot;text-align: left;&quot;&gt;&lt;span style=&quot;font-size: 60px;&quot;&gt;&lt;span style=&quot;white-space: pre;&quot;&gt;&#x9;&lt;/span&gt;&quot;Total_order_amt&quot;: 123&lt;br&gt;&lt;/span&gt;&lt;/div&gt;&lt;div style=&quot;text-align: left;&quot;&gt;&lt;/div&gt;&lt;div style=&quot;text-align: left;&quot;&gt;&lt;/div&gt;&lt;div style=&quot;text-align: left;&quot;&gt;&lt;span style=&quot;background-color: initial; font-size: 60px;&quot;&gt;}&lt;/span&gt;&lt;/div&gt;&lt;/font&gt;" style="text;html=1;align=center;verticalAlign=middle;resizable=0;points=[];autosize=1;strokeColor=none;fillColor=none;" vertex="1" parent="1">
          <mxGeometry x="3340" y="2090" width="1060" height="1240" as="geometry" />
        </mxCell>
        <mxCell id="BfkKTybxNyAKzRBTMPO3-83" value="&lt;font style=&quot;&quot;&gt;&lt;span style=&quot;font-size: 60px;&quot;&gt;Review DB:&lt;/span&gt;&lt;br&gt;&lt;div style=&quot;font-size: 60px; text-align: left;&quot;&gt;&lt;span style=&quot;background-color: initial;&quot;&gt;{&lt;/span&gt;&lt;/div&gt;&lt;div style=&quot;text-align: left;&quot;&gt;&lt;span style=&quot;font-size: 60px;&quot;&gt;&lt;span style=&quot;white-space: pre;&quot;&gt;&#x9;&lt;/span&gt;&quot;Key&lt;/span&gt;&lt;span style=&quot;background-color: initial; font-size: 60px;&quot;&gt;&quot;: &quot;1231313131&quot;,&lt;/span&gt;&lt;/div&gt;&lt;div style=&quot;text-align: left;&quot;&gt;&lt;span style=&quot;background-color: initial; font-size: 60px;&quot;&gt;&lt;span style=&quot;white-space: pre;&quot;&gt;&#x9;&lt;/span&gt;&quot;Rating&quot;: 4,&lt;/span&gt;&lt;/div&gt;&lt;div style=&quot;text-align: left;&quot;&gt;&lt;span style=&quot;background-color: initial; font-size: 60px;&quot;&gt;&lt;span style=&quot;white-space: pre;&quot;&gt;&#x9;&lt;/span&gt;&quot;Description&quot;: &quot;sdads&quot;,&lt;/span&gt;&lt;/div&gt;&lt;div style=&quot;text-align: left;&quot;&gt;&lt;span style=&quot;background-color: initial; font-size: 60px;&quot;&gt;&lt;span style=&quot;white-space: pre;&quot;&gt;&#x9;&lt;/span&gt;&quot;Images/videos&quot;: [&lt;br&gt;&lt;/span&gt;&lt;/div&gt;&lt;div style=&quot;text-align: left;&quot;&gt;&lt;span style=&quot;background-color: initial; font-size: 60px;&quot;&gt;&lt;span style=&quot;white-space: pre;&quot;&gt;&#x9;&lt;/span&gt;&lt;span style=&quot;white-space: pre;&quot;&gt;&#x9;&lt;/span&gt;{&lt;/span&gt;&lt;/div&gt;&lt;div style=&quot;text-align: left;&quot;&gt;&lt;span style=&quot;background-color: initial; font-size: 60px;&quot;&gt;&lt;span style=&quot;white-space: pre;&quot;&gt;&#x9;&lt;/span&gt;&lt;span style=&quot;white-space: pre;&quot;&gt;&#x9;&lt;/span&gt;&lt;span style=&quot;white-space: pre;&quot;&gt;&#x9;&lt;/span&gt;&quot;AttachmentID&quot;:&quot;dasdasd&quot;&lt;br&gt;&lt;/span&gt;&lt;/div&gt;&lt;div style=&quot;text-align: left;&quot;&gt;&lt;span style=&quot;background-color: initial; font-size: 60px;&quot;&gt;&lt;span style=&quot;white-space: pre;&quot;&gt;&#x9;&lt;/span&gt;&lt;span style=&quot;white-space: pre;&quot;&gt;&#x9;&lt;/span&gt;}&lt;br&gt;&lt;/span&gt;&lt;/div&gt;&lt;div style=&quot;text-align: left;&quot;&gt;&lt;span style=&quot;background-color: initial; font-size: 60px;&quot;&gt;&lt;span style=&quot;white-space: pre;&quot;&gt;&#x9;&lt;/span&gt;]&lt;/span&gt;&lt;/div&gt;&lt;div style=&quot;text-align: left;&quot;&gt;&lt;span style=&quot;background-color: initial; font-size: 60px;&quot;&gt;}&lt;/span&gt;&lt;/div&gt;&lt;/font&gt;" style="text;html=1;align=center;verticalAlign=middle;resizable=0;points=[];autosize=1;strokeColor=none;fillColor=none;" vertex="1" parent="1">
          <mxGeometry x="4620" y="2090" width="1120" height="810" as="geometry" />
        </mxCell>
        <mxCell id="BfkKTybxNyAKzRBTMPO3-84" value="&lt;font style=&quot;&quot;&gt;&lt;span style=&quot;font-size: 59px;&quot;&gt;&lt;b&gt;API&lt;/b&gt;&lt;/span&gt;&lt;br&gt;&lt;br&gt;&lt;br&gt;&lt;div style=&quot;text-align: left;&quot;&gt;&lt;span style=&quot;font-size: 59px;&quot;&gt;1. GetRecommentations(UserID) - Return a list of 10 product recommendations&lt;/span&gt;&lt;/div&gt;&lt;div style=&quot;text-align: left;&quot;&gt;&lt;span style=&quot;font-size: 59px;&quot;&gt;2. Search(Seachr String, UserID - Get method &amp;amp; return a list of products&lt;/span&gt;&lt;/div&gt;&lt;div style=&quot;text-align: left;&quot;&gt;&lt;span style=&quot;font-size: 59px;&quot;&gt;3. AddToCart(UserID, ProductID, Qty, Amt) - Returns a boolean status&amp;nbsp;&lt;/span&gt;&lt;/div&gt;&lt;div style=&quot;text-align: left;&quot;&gt;&lt;span style=&quot;font-size: 59px;&quot;&gt;4. PlaceOrder(User ID, ProductID, AddressID, PaymentStatus) - Return boolean&lt;/span&gt;&lt;/div&gt;&lt;div style=&quot;text-align: left;&quot;&gt;&lt;span style=&quot;font-size: 59px;&quot;&gt;5. CheckOrderStatus(OrderID) - GET - Returns order status&lt;/span&gt;&lt;/div&gt;&lt;div style=&quot;text-align: left;&quot;&gt;&lt;br&gt;&lt;/div&gt;&lt;div style=&quot;text-align: left;&quot;&gt;&lt;span style=&quot;font-size: 59px;&quot;&gt;&lt;br&gt;&lt;/span&gt;&lt;/div&gt;&lt;/font&gt;" style="text;html=1;align=center;verticalAlign=middle;resizable=0;points=[];autosize=1;strokeColor=none;fillColor=none;" vertex="1" parent="1">
          <mxGeometry x="2595" y="3870" width="2120" height="550" as="geometry" />
        </mxCell>
      </root>
    </mxGraphModel>
  </diagram>
</mxfile>
